<svg xmlns="http://www.w3.org/2000/svg" x="0px" y="0px" width="100%" viewBox="0 0 200 195" style="vertical-align: middle; max-width: 100%; width: 100%;"><g>
	<path fill="rgb(255,208,22)" d="M135.503,61.057c-1.623-1.535-3.955-2.126-6.142-1.417L94.759,70.977L7.603,99.498    c-2.362,0.768-4.015,2.895-4.133,5.373c-0.118,2.48,1.24,4.783,3.484,5.787l38.973,17.656c3.041,1.387,6.613,0.029,7.971-2.953    c1.359-3.07,0-6.613-3.011-7.971l-24.859-11.279l68.733-22.498l27.281-8.917l-27.281,86.744l-3.307,10.629l-21.435-44.523    c-1.417-2.982-5.019-4.193-8.03-2.775c-0.886,0.473-1.654,1.15-2.244,1.83c-0.266,0.236-0.502,0.412-0.768,0.648L1.757,184.529    c-2.362,2.361-2.362,6.141,0,8.502c1.151,1.182,2.716,1.773,4.192,1.773c1.594,0,3.1-0.592,4.311-1.773l52.583-52.613    l24.328,50.632c1.033,2.066,3.159,3.45,5.403,3.45h0.473c0.59,0,1.181-0.261,1.712-0.438c1.712-0.65,3.011-2.11,3.573-3.853    L136.98,67.161C137.658,65.034,137.039,62.651,135.503,61.057z"></path>
	<path fill="rgb(255,208,22)" d="M109.491,0c-4.988,0-9.919,0.414-14.732,1.21C63.995,6.112,37.777,26.69,25.672,56.215    c-1.24,3.07,0.236,6.554,3.307,7.853c3.071,1.24,6.555-0.236,7.794-3.307c10.245-24.978,32.182-42.516,57.986-47.417    c4.813-0.915,9.714-1.358,14.732-1.358c43.284,0,78.506,35.253,78.506,78.536c0,35.548-23.972,66.755-58.28,75.878    c-3.189,0.887-5.107,4.135-4.252,7.293c0.709,2.746,3.129,4.518,5.788,4.518c0.531,0,1.033-0.059,1.535-0.178    c39.563-10.51,67.197-46.531,67.197-87.511C199.985,40.567,159.419,0,109.491,0z"></path>
	<path fill="rgb(255,208,22)" d="M131.253,149.984c0.707,0,1.475-0.176,2.184-0.412c11.869-4.605,22.024-12.578,29.348-23.029    c7.5-10.746,11.426-23.295,11.426-36.493c0-35.134-28.551-63.744-63.743-63.744c-5.374,0-10.629,0.679-15.708,1.978    C76.661,32.95,61.042,45.468,52.864,62.77c-1.447,3.012-0.147,6.555,2.834,7.972c3.042,1.417,6.584,0.177,8.001-2.864    c6.259-13.079,17.656-22.763,31.06-27.074c5.02-1.594,10.333-2.48,15.708-2.48c28.521,0,51.726,23.207,51.726,51.728    c0,21.258-13.285,40.625-33.067,48.301c-3.1,1.182-4.664,4.666-3.482,7.736C126.586,148.48,128.83,149.984,131.253,149.984z"></path>
</g></svg>